<?xml version="1.0" encoding="utf-8"?>
<!-- Generator: Adobe Illustrator 19.2.1, SVG Export Plug-In . SVG Version: 6.00 Build 0)  -->
<svg version="1.1" id="layer" xmlns="http://www.w3.org/2000/svg" xmlns:xlink="http://www.w3.org/1999/xlink" x="0px" y="0px"
	 viewBox="0 0 652 652" style="enable-background:new 0 0 652 652;" xml:space="preserve">
<style type="text/css">
	.st0{fill:#EF7A0B;}
	.st1{fill:#9FA0A0;}
	.st2{fill:#003568;}
</style>
<path class="st0" d="M620.9,232c0-8.4-7.1-11.2-15.3-13.5c-7.8-2.2-11.3-3.3-11.3-8.4c0-5.4,3.9-7.1,10.5-7.1
	c4.8,0,9.5,1.3,13.3,2.9l1.2-4.8c-4.1-1.9-8.8-3-14.5-3c-10.2,0-16.3,3.8-16.3,12.4c0,7.1,5,10.7,14.9,13.1c7.9,2,11.8,4.1,11.8,9.1
	c0,5-4.2,7.3-10.6,7.3c-4.8,0-10.1-1.4-14.5-3.2l-1.4,4.8c4.7,1.9,10.5,3.3,15.9,3.3C614.6,244.9,620.9,240.1,620.9,232
	 M575.1,212.3c0,5.2-3.5,8.6-9.2,8.6h-12.4v-17.1h12.4C571.7,203.8,575.1,206.9,575.1,212.3 M581.2,212.3c0-7.7-5-13.4-14.5-13.4
	h-19.1v45.2h6v-18.4h11.1l11.8,18.4h7.2l-12.8-18.9C577.2,223.5,581.2,218.4,581.2,212.3 M511.1,244.1h29.2V239H517v-15.4h21.7v-5.2
	H517v-14.3h23.2v-5.2h-29.1V244.1z M505.2,204.1v-5.2h-33.3v5.2h13.7v40.1h6v-40.1H505.2z M466,198.9h-6v29.7
	c0,7.1-4.3,11.3-11.8,11.3c-7.5,0-11.8-4.3-11.8-11.3v-29.7h-6v29.2c0,9,5.9,16.8,17.7,16.8c11.8,0,17.8-7.9,17.8-16.8V198.9z
	 M394.6,244.1h29.2V239h-23.2v-15.4h21.7v-5.2h-21.7v-14.3h23.2v-5.2h-29.1V244.1z M379.7,212.3c0,5.2-3.5,8.6-9.2,8.6h-12.4v-17.1
	h12.4C376.3,203.8,379.7,206.9,379.7,212.3 M385.7,212.3c0-7.7-5-13.4-14.5-13.4h-19.1v45.2h6v-18.4h11.1l11.8,18.4h7.2l-12.8-18.9
	C381.8,223.5,385.7,218.4,385.7,212.3 M290.7,244.1h5.8v-35.9l24.8,35.9h5.9v-45.2h-5.8v35.9l-24.8-35.9h-5.9V244.1z M262.4,240
	c-10,0-14.6-7.7-14.6-18.5s4.6-18.5,14.6-18.5c10,0,14.6,7.7,14.6,18.5S272.4,240,262.4,240 M241.8,221.5c0,12.6,6.6,23.4,20.6,23.4
	c14,0,20.6-10.9,20.6-23.4s-6.6-23.4-20.6-23.4C248.4,198.1,241.8,208.9,241.8,221.5 M237,232c0-8.4-7.1-11.2-15.3-13.5
	c-7.8-2.2-11.3-3.3-11.3-8.4c0-5.4,3.9-7.1,10.5-7.1c4.8,0,9.5,1.3,13.3,2.9l1.2-4.8c-4.1-1.9-8.8-3-14.5-3
	c-10.2,0-16.3,3.8-16.3,12.4c0,7.1,5,10.7,14.9,13.1c7.9,2,11.8,4.1,11.8,9.1c0,5-4.2,7.3-10.6,7.3c-4.8,0-10.1-1.4-14.5-3.2
	l-1.4,4.8c4.7,1.9,10.5,3.3,15.9,3.3C230.8,244.9,237,240.1,237,232 M196.8,198.9h-5.9l-16,34.2l-16-34.2H153v45.2h5.6v-34
	l13.2,28.2h6.1l13.2-28.2v34h5.6V198.9z M124.7,240c-10,0-14.6-7.7-14.6-18.5s4.6-18.5,14.6-18.5c10,0,14.6,7.7,14.6,18.5
	S134.8,240,124.7,240 M104.2,221.5c0,12.6,6.6,23.4,20.6,23.4c14,0,20.6-10.9,20.6-23.4s-6.6-23.4-20.6-23.4
	C110.7,198.1,104.2,208.9,104.2,221.5 M61.5,244.1h6v-20.4h23v20.4h6v-45.2h-6v19.5h-23v-19.5h-6V244.1z M55.6,204.1v-5.2H22.3v5.2
	H36v40.1h6v-40.1H55.6z"/>
<g>
	<path class="st1" d="M217.5,319c-4.5,4.4-4.6,11.5-0.3,16.1c4.4,4.5,11.6,4.6,16.1,0.3c4.5-4.4,4.6-11.6,0.3-16.1
		C229.2,314.7,222,314.6,217.5,319 M255,295c-4.3,2.6-5.7,8.2-3.1,12.5c2.6,4.3,8.2,5.7,12.5,3.2c4.3-2.6,5.7-8.2,3.2-12.5
		C264.9,293.8,259.4,292.4,255,295 M289.2,280.7c-4.1,1.5-6.2,6.1-4.7,10.2c1.5,4.1,6.1,6.2,10.2,4.7c4.1-1.5,6.2-6.1,4.6-10.2
		C297.9,281.3,293.3,279.2,289.2,280.7 M324.5,272.9c-3.8,0.7-6.4,4.3-5.7,8.2c0.7,3.8,4.3,6.4,8.1,5.8c3.8-0.7,6.4-4.3,5.8-8.2
		C332,274.8,328.4,272.2,324.5,272.9 M362,271c-3.8,0-6.9,3-6.9,6.7c-0.1,3.8,3,6.9,6.7,6.9c3.8,0.1,6.9-3,6.9-6.7
		C368.8,274.2,365.8,271,362,271 M396,280c-3.3-1.4-7,0.1-8.4,3.4c-1.4,3.3,0.1,7,3.4,8.4c3.3,1.4,7-0.1,8.4-3.4
		C400.8,285.2,399.3,281.4,396,280 M405.5,305.4c-2.9-1-6.1,0.6-7.1,3.5c-1,2.9,0.6,6.1,3.5,7.1c2.9,1,6.1-0.6,7.1-3.5
		C410,309.6,408.4,306.4,405.5,305.4 M388.4,329.1c-2.2,1.8-2.6,5-0.8,7.2c1.8,2.2,5,2.5,7.2,0.8c2.2-1.8,2.6-5,0.8-7.2
		C393.8,327.6,390.6,327.3,388.4,329.1"/>
</g>
<g>
	<path class="st2" d="M331.8,437.3c-8.9,0-11.3-4-11.3-11.5v-56h21.1v-8.2h-21.1v-22h-10v22h-11.9v8.2h11.9v56.6c0,12,5.4,19,19,19
		c4.2,0,9.4-0.7,12.4-1.9l-0.5-7.7C338.8,436.8,335.3,437.3,331.8,437.3 M194.6,359.8c-24.4,0-36.6,16.8-36.6,42.9
		c0,25,11,42.9,38.9,42.9c11,0,21.5-2.6,28.1-5.9l-1.6-6.8c-7,3-16.1,5.2-25.5,5.2c-21.8,0-29.7-12.7-30.4-32.5H226v-7.8
		C226,376.8,217.8,359.8,194.6,359.8 M216.7,398.4h-49c1-20.9,10-31.6,26.7-31.6c16.7,0,22.3,12.9,22.3,29.3V398.4z M374.2,437
		c-7.2,0-9.4-4.4-9.4-11.5v-97.7H355v97.6c0,11.7,4,19.7,16.6,19.7c3.8,0,7.7-0.5,10.1-1.2l-0.3-7.7
		C379.1,436.6,376.8,437,374.2,437 M265.3,397.7c-14.5-4.4-21.5-6.6-21.5-16.4c0-10.1,7.5-14,19.9-14c8.7,0,17.3,2.1,24.1,5.1
		l1.9-7.5c-6.6-3-15.6-5.1-26-5.1c-18.7,0-29.5,7.2-29.5,22.5c0,13.3,8.9,18.7,28.5,24.1c14.5,3.8,20.8,7.5,20.8,16.6
		c0,9.6-6.8,15.2-19.7,15.2c-9.2,0-18.5-2.4-26.9-6.1l-2.4,7.3c9.4,4,20.1,6.3,29.3,6.3c18.7,0,29.3-8.7,29.3-23.7
		C293,407.5,282.2,402.8,265.3,397.7 M153.7,327.7L126.7,429l-29-101.2h-11L57.7,429L30.7,327.7h-9.8L53.2,444h9.3l29.8-106.8
		L122,444h9.2l32.3-116.2H153.7z M564.6,361.6l-19.9,70.2l-21.8-70.2h-10.5l-21.8,70.2l-19.9-70.2h-9.6l24.6,82.4h9.4l22.7-73.5
		l22.3,73.5h9.4l24.6-82.4H564.6z M422.7,359.8c-11,0-20.6,2.1-28.6,5.9l1.7,7.9c8.2-3.7,16.9-5.6,25.8-5.6c14.7,0,22,5.6,22,18.8
		v9.8h-26.5c-17.3,0-28.8,8.6-28.8,25c0,15,9.8,24.1,25.8,24.1c14.2,0,24.1-6.3,29.9-17.3V444h9.4v-58.1
		C453.4,368.2,442.8,359.8,422.7,359.8 M443.7,412c0,13.1-10.8,26.5-27.4,26.5c-13.1,0-18.3-6.1-18.3-16.8
		c0-11.7,5.8-17.8,20.3-17.8h25.5V412z M579.2,428.6c0-2.6-1.4-4-4.7-4H569v14.4h1.8v-6.4h3l4.1,6.4h2.1l-4.3-6.4
		C577.6,432.3,579.2,431.2,579.2,428.6 M573.1,431.1h-2.3v-5h3.3c1.7,0,3.4,0.5,3.4,2.5C577.5,431.1,575.3,431.1,573.1,431.1
		 M573.5,419.4c-7,0-12.5,5.5-12.5,12.5c0,7,5.4,12.5,12.5,12.5c7,0,12.5-5.5,12.5-12.5C586,424.8,580.6,419.4,573.5,419.4
		 M573.5,442.6c-6,0-10.5-4.7-10.5-10.7c0-6,4.5-10.7,10.5-10.7c6,0,10.5,4.7,10.5,10.7C584.1,437.8,579.6,442.6,573.5,442.6"/>
</g>
</svg>
